<svg width="1443" height="294" viewBox="0 0 1443 294" fill="none" xmlns="http://www.w3.org/2000/svg">
<path d="M466.53 174H437.63L399.38 55.34H425.56L443.24 112.29L452.59 149.52H453.1L462.11 112.29L479.79 55.34H505.12L466.53 174ZM563.11 176.04C552.683 176.04 543.503 173.717 535.57 169.07C527.75 164.423 521.687 157.567 517.38 148.5C513.073 139.32 510.92 128.043 510.92 114.67C510.92 101.183 513.073 89.9067 517.38 80.84C521.687 71.7733 527.75 64.9167 535.57 60.27C543.503 55.6233 552.683 53.3 563.11 53.3C573.65 53.3 582.83 55.6233 590.65 60.27C598.47 64.9167 604.533 71.7733 608.84 80.84C613.147 89.9067 615.3 101.183 615.3 114.67C615.3 128.043 613.147 139.32 608.84 148.5C604.533 157.567 598.47 164.423 590.65 169.07C582.83 173.717 573.65 176.04 563.11 176.04ZM563.11 153.09C568.323 153.09 572.743 151.957 576.37 149.69C580.11 147.31 582.943 143.91 584.87 139.49C586.91 135.07 587.93 129.743 587.93 123.51V105.83C587.93 99.4833 586.91 94.1567 584.87 89.85C582.943 85.43 580.11 82.0867 576.37 79.82C572.743 77.44 568.323 76.25 563.11 76.25C558.01 76.25 553.59 77.44 549.85 79.82C546.11 82.0867 543.22 85.43 541.18 89.85C539.253 94.1567 538.29 99.4833 538.29 105.83V123.51C538.29 129.743 539.253 135.07 541.18 139.49C543.22 143.91 546.11 147.31 549.85 149.69C553.59 151.957 558.01 153.09 563.11 153.09ZM684.807 176.04C674.154 176.04 664.861 173.773 656.927 169.24C649.107 164.707 643.044 157.963 638.737 149.01C634.431 140.057 632.277 128.893 632.277 115.52C632.277 102.147 634.431 90.87 638.737 81.69C643.044 72.3967 649.107 65.37 656.927 60.61C664.861 55.7367 674.154 53.3 684.807 53.3C695.687 53.3 704.697 55.5667 711.837 60.1C719.091 64.6333 724.871 71.66 729.177 81.18L706.907 92.74C705.434 87.7533 702.941 83.7867 699.427 80.84C696.027 77.78 691.154 76.25 684.807 76.25C677.214 76.25 671.094 78.7433 666.447 83.73C661.914 88.6033 659.647 95.7433 659.647 105.15V124.19C659.647 133.483 661.914 140.623 666.447 145.61C671.094 150.597 677.214 153.09 684.807 153.09C691.154 153.09 696.197 151.39 699.937 147.99C703.791 144.477 706.624 140.283 708.437 135.41L729.517 147.65C725.097 156.603 719.261 163.573 712.007 168.56C704.754 173.547 695.687 176.04 684.807 176.04ZM846.232 174H819.372L810.872 145.78H771.262L762.762 174H736.582L775.682 55.34H807.642L846.232 174ZM804.582 123.85L797.272 99.2L791.322 78.8H790.472L784.692 99.2L777.382 123.85H804.582ZM862.649 174V55.34H920.279C930.025 55.34 937.675 58.1167 943.229 63.67C948.782 69.2233 951.559 76.59 951.559 85.77C951.559 91.7767 950.539 96.65 948.499 100.39C946.572 104.017 943.909 106.68 940.509 108.38C937.222 110.08 933.539 111.043 929.459 111.27V112.29C932.292 112.29 935.239 112.8 938.299 113.82C941.359 114.84 944.249 116.427 946.969 118.58C949.689 120.733 951.899 123.623 953.599 127.25C955.299 130.763 956.149 135.07 956.149 140.17C956.149 146.403 954.789 152.07 952.069 157.17C949.462 162.27 945.835 166.35 941.189 169.41C936.655 172.47 931.442 174 925.549 174H862.649ZM888.489 125.04V152.24H918.239C920.505 152.24 922.432 151.843 924.019 151.05C925.719 150.143 927.022 148.897 927.929 147.31C928.835 145.723 929.289 143.797 929.289 141.53V135.75C929.289 133.483 928.835 131.557 927.929 129.97C927.022 128.383 925.719 127.193 924.019 126.4C922.432 125.493 920.505 125.04 918.239 125.04H888.489ZM888.489 77.1V103.96H914.159C916.425 103.96 918.352 103.563 919.939 102.77C921.639 101.863 922.885 100.617 923.679 99.03C924.585 97.33 925.039 95.3467 925.039 93.08V87.98C925.039 85.7133 924.585 83.7867 923.679 82.2C922.885 80.5 921.639 79.2533 919.939 78.46C918.352 77.5533 916.425 77.1 914.159 77.1H888.489ZM1016.21 174V55.34H1043.58L1059.39 85.6L1072.65 110.93H1072.99L1086.08 85.6L1101.72 55.34H1129.26V174H1104.95V114.5V96.14H1104.44L1095.77 113.48L1072.65 155.47L1050.04 113.65L1041.03 94.95H1040.52V114.5V174H1016.21ZM1207.35 174H1150.91V153.43H1166.21V75.91H1150.91V55.34H1207.35V75.91H1192.05V153.43H1207.35V174ZM1297.56 174L1265.09 117.9L1253.7 94.1H1253.19V118.92V174H1228.88V55.34H1257.1L1289.57 111.44L1300.96 135.24H1301.47V110.42V55.34H1325.78V174H1297.56ZM1432.65 174H1351.9V55.34H1432.65V78.29H1377.74V102.6H1424.83V125.38H1377.74V151.05H1432.65V174Z" fill="black"/>
<path d="M616.104 263H604.968L594.856 218.328H604.456L608.68 239.768L611.048 252.184H611.24L614.056 239.768L618.984 218.328H629.608L634.6 239.768L637.352 252.184H637.544L639.912 239.768L644.2 218.328H653.416L643.048 263H631.976L626.344 238.808L624.168 229.016H623.976L621.736 238.808L616.104 263ZM676.598 263.768C672.673 263.768 669.217 262.893 666.23 261.144C663.286 259.395 661.003 256.813 659.382 253.4C657.761 249.944 656.95 245.699 656.95 240.664C656.95 235.587 657.761 231.341 659.382 227.928C661.003 224.515 663.286 221.933 666.23 220.184C669.217 218.435 672.673 217.56 676.598 217.56C680.566 217.56 684.022 218.435 686.966 220.184C689.91 221.933 692.193 224.515 693.814 227.928C695.435 231.341 696.246 235.587 696.246 240.664C696.246 245.699 695.435 249.944 693.814 253.4C692.193 256.813 689.91 259.395 686.966 261.144C684.022 262.893 680.566 263.768 676.598 263.768ZM676.598 255.128C678.561 255.128 680.225 254.701 681.59 253.848C682.998 252.952 684.065 251.672 684.79 250.008C685.558 248.344 685.942 246.339 685.942 243.992V237.336C685.942 234.947 685.558 232.941 684.79 231.32C684.065 229.656 682.998 228.397 681.59 227.544C680.225 226.648 678.561 226.2 676.598 226.2C674.678 226.2 673.014 226.648 671.606 227.544C670.198 228.397 669.11 229.656 668.342 231.32C667.617 232.941 667.254 234.947 667.254 237.336V243.992C667.254 246.339 667.617 248.344 668.342 250.008C669.11 251.672 670.198 252.952 671.606 253.848C673.014 254.701 674.678 255.128 676.598 255.128ZM714.094 246.616V263H704.366V218.328H725.55C728.323 218.328 730.712 218.925 732.718 220.12C734.723 221.315 736.28 222.979 737.39 225.112C738.499 227.245 739.054 229.741 739.054 232.6C739.054 235.587 738.371 238.232 737.006 240.536C735.683 242.797 733.656 244.44 730.926 245.464L739.694 263H728.878L721.07 246.616H714.094ZM714.094 238.424H724.334C725.315 238.424 726.147 238.253 726.83 237.912C727.512 237.571 728.046 237.08 728.43 236.44C728.814 235.757 729.006 234.947 729.006 234.008V231.192C729.006 230.211 728.814 229.4 728.43 228.76C728.046 228.12 727.512 227.629 726.83 227.288C726.147 226.947 725.315 226.776 724.334 226.776H714.094V238.424ZM747.491 263V218.328H764.323C768.291 218.328 771.747 219.16 774.691 220.824C777.635 222.488 779.917 224.984 781.539 228.312C783.16 231.597 783.971 235.715 783.971 240.664C783.971 245.613 783.16 249.752 781.539 253.08C779.917 256.365 777.635 258.84 774.691 260.504C771.747 262.168 768.291 263 764.323 263H747.491ZM757.219 254.36H764.323C766.243 254.36 767.907 253.997 769.315 253.272C770.723 252.547 771.789 251.437 772.515 249.944C773.283 248.408 773.667 246.467 773.667 244.12V237.208C773.667 234.819 773.283 232.877 772.515 231.384C771.789 229.891 770.723 228.781 769.315 228.056C767.907 227.331 766.243 226.968 764.323 226.968H757.219V254.36ZM806.58 263.768C802.697 263.768 799.369 263.085 796.595 261.72C793.865 260.355 791.54 258.627 789.62 256.536L796.02 250.072C797.513 251.779 799.198 253.059 801.076 253.912C802.996 254.765 805.044 255.192 807.22 255.192C809.609 255.192 811.38 254.701 812.532 253.72C813.684 252.739 814.26 251.437 814.26 249.816C814.26 249.005 814.11 248.28 813.812 247.64C813.556 246.957 813.044 246.403 812.276 245.976C811.55 245.507 810.484 245.187 809.076 245.016L804.66 244.44C801.545 244.013 798.964 243.245 796.916 242.136C794.91 240.984 793.417 239.491 792.436 237.656C791.454 235.779 790.964 233.603 790.964 231.128C790.964 228.44 791.625 226.093 792.948 224.088C794.313 222.04 796.233 220.44 798.708 219.288C801.225 218.136 804.233 217.56 807.732 217.56C811.102 217.56 814.068 218.115 816.628 219.224C819.188 220.291 821.385 221.827 823.22 223.832L816.756 230.36C815.689 229.123 814.388 228.12 812.852 227.352C811.358 226.541 809.46 226.136 807.156 226.136C804.98 226.136 803.358 226.52 802.292 227.288C801.225 228.056 800.692 229.123 800.692 230.488C800.692 231.512 800.862 232.344 801.204 232.984C801.588 233.624 802.164 234.115 802.932 234.456C803.742 234.797 804.766 235.075 806.003 235.288L810.42 235.992C813.492 236.461 816.03 237.251 818.036 238.36C820.041 239.469 821.534 240.92 822.516 242.712C823.497 244.504 823.988 246.68 823.988 249.24C823.988 252.099 823.305 254.616 821.94 256.792C820.617 258.968 818.654 260.675 816.052 261.912C813.449 263.149 810.292 263.768 806.58 263.768ZM846.922 218.328H856.394V245.72C856.394 247.811 856.65 249.56 857.162 250.968C857.717 252.333 858.591 253.379 859.786 254.104C860.981 254.787 862.538 255.128 864.458 255.128C866.378 255.128 867.914 254.787 869.066 254.104C870.261 253.379 871.135 252.333 871.69 250.968C872.245 249.56 872.522 247.811 872.522 245.72V218.328H881.994V244.696C881.994 249.091 881.418 252.696 880.266 255.512C879.114 258.328 877.258 260.419 874.698 261.784C872.138 263.107 868.725 263.768 864.458 263.768C860.191 263.768 856.778 263.107 854.218 261.784C851.658 260.419 849.802 258.328 848.65 255.512C847.498 252.696 846.922 249.091 846.922 244.696V218.328ZM917.472 263L905.248 241.88L900.96 232.92H900.768V242.264V263H891.616V218.328H902.24L914.464 239.448L918.752 248.408H918.944V239.064V218.328H928.096V263H917.472ZM964.68 263H937.928V218.328H947.656V254.36H964.68V263ZM987.223 263.768C983.298 263.768 979.842 262.893 976.855 261.144C973.911 259.395 971.628 256.813 970.007 253.4C968.386 249.944 967.575 245.699 967.575 240.664C967.575 235.587 968.386 231.341 970.007 227.928C971.628 224.515 973.911 221.933 976.855 220.184C979.842 218.435 983.298 217.56 987.223 217.56C991.191 217.56 994.647 218.435 997.591 220.184C1000.54 221.933 1002.82 224.515 1004.44 227.928C1006.06 231.341 1006.87 235.587 1006.87 240.664C1006.87 245.699 1006.06 249.944 1004.44 253.4C1002.82 256.813 1000.54 259.395 997.591 261.144C994.647 262.893 991.191 263.768 987.223 263.768ZM987.223 255.128C989.186 255.128 990.85 254.701 992.215 253.848C993.623 252.952 994.69 251.672 995.415 250.008C996.183 248.344 996.567 246.339 996.567 243.992V237.336C996.567 234.947 996.183 232.941 995.415 231.32C994.69 229.656 993.623 228.397 992.215 227.544C990.85 226.648 989.186 226.2 987.223 226.2C985.303 226.2 983.639 226.648 982.231 227.544C980.823 228.397 979.735 229.656 978.967 231.32C978.242 232.941 977.879 234.947 977.879 237.336V243.992C977.879 246.339 978.242 248.344 978.967 250.008C979.735 251.672 980.823 252.952 982.231 253.848C983.639 254.701 985.303 255.128 987.223 255.128ZM1033.04 263.768C1029.03 263.768 1025.53 262.915 1022.54 261.208C1019.6 259.501 1017.32 256.963 1015.69 253.592C1014.07 250.221 1013.26 246.019 1013.26 240.984C1013.26 235.949 1014.07 231.704 1015.69 228.248C1017.32 224.749 1019.6 222.104 1022.54 220.312C1025.53 218.477 1029.03 217.56 1033.04 217.56C1037.13 217.56 1040.53 218.413 1043.21 220.12C1045.95 221.827 1048.12 224.472 1049.74 228.056L1041.36 232.408C1040.8 230.531 1039.87 229.037 1038.54 227.928C1037.26 226.776 1035.43 226.2 1033.04 226.2C1030.18 226.2 1027.88 227.139 1026.13 229.016C1024.42 230.851 1023.57 233.539 1023.57 237.08V244.248C1023.57 247.747 1024.42 250.435 1026.13 252.312C1027.88 254.189 1030.18 255.128 1033.04 255.128C1035.43 255.128 1037.33 254.488 1038.73 253.208C1040.19 251.885 1041.25 250.307 1041.93 248.472L1049.87 253.08C1048.21 256.451 1046.01 259.075 1043.28 260.952C1040.55 262.829 1037.13 263.768 1033.04 263.768ZM1084.07 263L1072.23 243.544L1066.41 250.584V263H1056.68V218.328H1066.41V230.936V239.576H1066.79L1073.13 230.936L1083.17 218.328H1094.18L1079.14 236.696L1095.53 263H1084.07ZM1131.64 263H1101.24V218.328H1131.64V226.968H1110.97V236.12H1128.7V244.696H1110.97V254.36H1131.64V263ZM1140.12 263V218.328H1156.95C1160.92 218.328 1164.37 219.16 1167.32 220.824C1170.26 222.488 1172.54 224.984 1174.16 228.312C1175.78 231.597 1176.6 235.715 1176.6 240.664C1176.6 245.613 1175.78 249.752 1174.16 253.08C1172.54 256.365 1170.26 258.84 1167.32 260.504C1164.37 262.168 1160.92 263 1156.95 263H1140.12ZM1149.84 254.36H1156.95C1158.87 254.36 1160.53 253.997 1161.94 253.272C1163.35 252.547 1164.41 251.437 1165.14 249.944C1165.91 248.408 1166.29 246.467 1166.29 244.12V237.208C1166.29 234.819 1165.91 232.877 1165.14 231.384C1164.41 229.891 1163.35 228.781 1161.94 228.056C1160.53 227.331 1158.87 226.968 1156.95 226.968H1149.84V254.36Z" fill="#364B8C" fill-opacity="0.73"/>
<rect x="440" y="234" width="102" height="9" fill="black"/>
<rect x="1217" y="235" width="102" height="9" fill="black"/>
<path d="M339.64 78.7813L294.741 164.165L284.177 198.494L233.469 227.982L197.55 273.314C197.55 273.314 207.058 182.209 208.114 177.808C209.171 173.407 215.509 145.239 227.658 133.796C239.807 122.353 263.049 106.069 268.331 103.428C273.613 100.787 300.552 88.464 300.552 88.464L339.64 78.7813Z" fill="#364B8C"/>
<path d="M43.3102 78.8801L88.2939 164.232L98.8926 198.554L149.631 228.007L185.595 273.314C185.595 273.314 175.996 182.216 174.935 177.816C173.874 173.415 167.507 145.252 155.347 133.817C143.186 122.383 119.929 106.114 114.644 103.477C109.359 100.84 82.4078 88.5356 82.4078 88.5356L43.3102 78.8801Z" fill="#364B8C"/>
<path d="M28.5211 122.793L44.8958 128.955L82.9273 215.219C82.9273 215.219 111.451 221.38 134.692 238.105C157.934 254.829 167.97 271.114 167.97 271.114L70.7783 230.183L28.5211 122.793Z" fill="#364B8C"/>
<path d="M0 153.602L16.3747 150.521L54.4061 246.027C54.4061 246.027 100.889 253.509 135.751 267.593C170.613 281.677 181.706 293.56 181.706 293.56L42.2572 260.991L0 153.602Z" fill="#364B8C"/>
<path d="M379.255 154.042L362.88 150.961L324.849 246.467C324.849 246.467 278.366 253.949 243.504 268.033C208.641 282.117 197.549 294 197.549 294L336.998 261.431L379.255 154.042Z" fill="#364B8C"/>
<path d="M358.13 118.392L341.755 124.554L303.724 210.817C303.724 210.817 275.2 216.979 251.959 233.704C228.717 250.428 218.681 266.713 218.681 266.713L315.873 225.781L358.13 118.392Z" fill="#364B8C"/>
<path d="M193.329 0L206.006 38.2904L244.037 48.4132L203.365 63.3772L193.329 99.0269L179.595 60.7365L138.922 48.4132L177.482 38.2904L193.329 0Z" fill="#364B8C"/>
</svg>
