<svg width="527" height="520" viewBox="0 0 527 520" fill="none" xmlns="http://www.w3.org/2000/svg">
<g filter="url(#filter0_d_59_52)">
<rect width="512" height="512" rx="49" fill="white"/>
<rect x="0.5" y="0.5" width="511" height="511" rx="48.5" stroke="black" stroke-opacity="0.2"/>
</g>
<path d="M405.64 187.781L360.741 273.165L350.177 307.494L299.469 336.982L263.55 382.314C263.55 382.314 273.058 291.21 274.114 286.808C275.171 282.407 281.509 254.239 293.658 242.796C305.807 231.353 329.049 215.069 334.331 212.428C339.613 209.787 366.552 197.464 366.552 197.464L405.64 187.781Z" fill="#364B8C"/>
<path d="M109.31 187.88L154.294 273.232L164.893 307.554L215.631 337.007L251.595 382.314C251.595 382.314 241.996 291.216 240.935 286.816C239.874 282.415 233.507 254.252 221.347 242.817C209.186 231.383 185.929 215.114 180.644 212.477C175.359 209.84 148.408 197.536 148.408 197.536L109.31 187.88Z" fill="#364B8C"/>
<path d="M109.31 187.88L154.294 273.232L164.893 307.554L215.631 337.007L251.595 382.314C251.595 382.314 241.996 291.216 240.935 286.816C239.874 282.415 233.507 254.252 221.347 242.817C209.186 231.383 185.929 215.114 180.644 212.477C175.359 209.84 148.408 197.536 148.408 197.536L109.31 187.88Z" fill="#364B8C"/>
<path d="M94.5211 231.793L110.896 237.955L148.927 324.218C148.927 324.218 177.451 330.38 200.692 347.105C223.934 363.829 233.97 380.114 233.97 380.114L136.778 339.183L94.5211 231.793Z" fill="#364B8C"/>
<path d="M66 262.602L82.3747 259.521L120.406 355.027C120.406 355.027 166.889 362.509 201.751 376.593C236.613 390.677 247.706 402.56 247.706 402.56L108.257 369.991L66 262.602Z" fill="#364B8C"/>
<path d="M445.255 263.042L428.88 259.961L390.849 355.467C390.849 355.467 344.366 362.949 309.504 377.033C274.641 391.117 263.549 403 263.549 403L402.998 370.431L445.255 263.042Z" fill="#364B8C"/>
<path d="M424.13 227.392L407.755 233.554L369.724 319.817C369.724 319.817 341.2 325.979 317.959 342.704C294.717 359.428 284.681 375.713 284.681 375.713L381.873 334.781L424.13 227.392Z" fill="#364B8C"/>
<path d="M259.329 109L272.006 147.29L310.037 157.413L269.365 172.377L259.329 208.027L245.595 169.737L204.922 157.413L243.482 147.29L259.329 109Z" fill="#364B8C"/>
<defs>
<filter id="filter0_d_59_52" x="0" y="0" width="527" height="520" filterUnits="userSpaceOnUse" color-interpolation-filters="sRGB">
<feFlood flood-opacity="0" result="BackgroundImageFix"/>
<feColorMatrix in="SourceAlpha" type="matrix" values="0 0 0 0 0 0 0 0 0 0 0 0 0 0 0 0 0 0 127 0" result="hardAlpha"/>
<feOffset dx="11" dy="4"/>
<feGaussianBlur stdDeviation="2"/>
<feComposite in2="hardAlpha" operator="out"/>
<feColorMatrix type="matrix" values="0 0 0 0 0 0 0 0 0 0 0 0 0 0 0 0 0 0 0.25 0"/>
<feBlend mode="normal" in2="BackgroundImageFix" result="effect1_dropShadow_59_52"/>
<feBlend mode="normal" in="SourceGraphic" in2="effect1_dropShadow_59_52" result="shape"/>
</filter>
</defs>
</svg>
